# xmcd
#
# Track frame offsets: 
#        150
#        11921
#        23196
#        36810
#        49695
#        63756
#        78013
#        91428
#        103592
#        113894
#        127650
#        137908
#        151308
#        163266
#        176757
#        190611
#        203046
#        216532
#        228419
#        241829
#        253348
#        267481
#        279131
#        293086
#        306353
#        316602
#        328359
#        342134
#
# Disc length: 4751 seconds
#
# Revision: 0
# Processed by: cddbd v1.5.2PL0 Copyright (c) Steve Scherf et al.
# Submitted via: ExactAudioCopy v1.1
#
DISCID=8e128d1c
DTITLE=Big Walter Horton - Blues Harmonica Giant: Classic Sides 1951-1
DTITLE=956
DYEAR=1900
DGENRE=Blues
TTITLE0=Cotton Patch Hotfoot
TTITLE1=What's The Matter With You: Take 1
TTITLE2=Little Boy Blue: Take 1
TTITLE3=Blues In The Morning
TTITLE4=Now Tell Me Baby
TTITLE5=I'm In Love With You Baby: Take 1
TTITLE6=Black Gal
TTITLE7=Hard Hearted Woman
TTITLE8=Jumpin' Blues
TTITLE9=So Long Woman
TTITLE10=What' The Matter WIth You: Take 2
TTITLE11=Little Boy Blue: Take 2
TTITLE12=I'm In Love With You Baby: Take 2
TTITLE13=Grandmother Got Grandfather Told: Take 1
TTITLE14=In The Mood
TTITLE15=Grandmother Got Grandfather Told: Take 2
TTITLE16=We All Gotta Go: Take 3
TTITLE17=Little Walter's Boogie: Take 1
TTITLE18=We All Gotta Go: Take 4
TTITLE19=Little Walter's Boogie: Take 2
TTITLE20=West Winds Are Blowing: Take 1
TTITLE21=Little Walter's Boogie: Take3
TTITLE22=West Winds Are Blowing: Take 2
TTITLE23=Walter's Instrumental
TTITLE24=Off The Wall
TTITLE25=Off The Wall
TTITLE26=Hard Hearted Woman
TTITLE27=Back Home To Mama
EXTD=
EXTT0=
EXTT1=
EXTT2=
EXTT3=
EXTT4=
EXTT5=
EXTT6=
EXTT7=
EXTT8=
EXTT9=
EXTT10=
EXTT11=
EXTT12=
EXTT13=
EXTT14=
EXTT15=
EXTT16=
EXTT17=
EXTT18=
EXTT19=
EXTT20=
EXTT21=
EXTT22=
EXTT23=
EXTT24=
EXTT25=
EXTT26=
EXTT27=
PLAYORDER=
